<svg width="128" height="37" viewBox="0 0 128 37" fill="none" xmlns="http://www.w3.org/2000/svg">
<path d="M20.8894 24.1332H25.7914V27.7976H20.8894V36H16.3756V27.7976H0.286182V25.1524L16.1086 0.666406H20.8894V24.1332ZM5.38237 24.1332H16.3756V6.8061L15.8417 7.77681L5.38237 24.1332ZM52.9954 36H29.8441V32.7724L42.075 19.1826C43.8869 17.1279 45.1327 15.4615 45.8122 14.1834C46.5078 12.8892 46.8557 11.5545 46.8557 10.1793C46.8557 8.33496 46.2975 6.82228 45.1812 5.64126C44.0649 4.46024 42.5765 3.86973 40.716 3.86973C38.4833 3.86973 36.7442 4.50877 35.4984 5.78686C34.2689 7.04878 33.6541 8.81222 33.6541 11.0772H29.1646C29.1646 7.82534 30.2081 5.19635 32.2951 3.19023C34.3983 1.18411 37.2053 0.181054 40.716 0.181054C44.0002 0.181054 46.5968 1.0466 48.5059 2.77769C50.4149 4.49259 51.3694 6.78184 51.3694 9.64541C51.3694 13.1238 49.153 17.2654 44.7201 22.0704L35.2558 32.3356H52.9954V36ZM59.8146 18.2847L61.6104 0.666406H79.714V4.81616H65.4204L64.3526 14.4504C66.0837 13.4312 68.0493 12.9215 70.2496 12.9215C73.4691 12.9215 76.0253 13.9893 77.9182 16.1249C79.811 18.2442 80.7575 21.1159 80.7575 24.7398C80.7575 28.38 79.7706 31.2516 77.7968 33.3548C75.8392 35.4418 73.097 36.4854 69.5701 36.4854C66.4477 36.4854 63.8996 35.6198 61.9258 33.8887C59.9521 32.1576 58.8277 29.7632 58.5526 26.7055H62.7995C63.0745 28.7278 63.7944 30.2567 64.9593 31.2921C66.1241 32.3113 67.6611 32.8209 69.5701 32.8209C71.6571 32.8209 73.2911 32.1091 74.4722 30.6854C75.6694 29.2617 76.268 27.296 76.268 24.7884C76.268 22.4263 75.6208 20.5335 74.3266 19.1098C73.0485 17.6699 71.3417 16.95 69.2061 16.95C67.2485 16.95 65.7116 17.3787 64.5953 18.2361L63.4062 19.2068L59.8146 18.2847ZM85.8779 6.49062C85.8779 4.80807 86.4765 3.33584 87.6737 2.07393C88.8871 0.812011 90.3513 0.181054 92.0662 0.181054C93.7487 0.181054 95.1805 0.812011 96.3615 2.07393C97.5587 3.31966 98.1573 4.79189 98.1573 6.49062C98.1573 8.20553 97.5587 9.66968 96.3615 10.8831C95.1805 12.0964 93.7487 12.7031 92.0662 12.7031C90.3674 12.7031 88.9114 12.0964 87.698 10.8831C86.4846 9.66968 85.8779 8.20553 85.8779 6.49062ZM92.0662 9.59687C92.9398 9.59687 93.6759 9.31375 94.2745 8.74751C94.8731 8.16509 95.1724 7.41279 95.1724 6.49062C95.1724 5.55228 94.8731 4.7838 94.2745 4.1852C93.6759 3.57043 92.9398 3.26304 92.0662 3.26304C91.1764 3.26304 90.4241 3.5866 89.8093 4.23374C89.2107 4.8647 88.9114 5.61699 88.9114 6.49062C88.9114 7.36426 89.2107 8.10037 89.8093 8.69897C90.4241 9.29757 91.1764 9.59687 92.0662 9.59687ZM124.9 20.3959H110.073V36H105.413V0.666406H127.303V4.50068H110.073V16.5859H124.9V20.3959Z" fill="#F2F2F2"/>
</svg>
