<svg width="301" height="55" viewBox="0 0 301 55" fill="none" xmlns="http://www.w3.org/2000/svg">
<path d="M36.5556 32.0717C36.5556 39.4054 35.0378 45.015 32.0023 48.9004C28.9668 52.7858 24.5229 54.7285 18.6705 54.7285C12.8909 54.7285 8.47128 52.8222 5.41151 49.0097C2.35175 45.1971 0.785437 39.7332 0.712585 32.6181V22.856C0.712585 15.4494 2.24247 9.82767 5.30223 5.99082C8.38628 2.15397 12.8181 0.235548 18.5976 0.235548C24.3772 0.235548 28.7969 2.14183 31.8566 5.9544C34.9164 9.74268 36.4827 15.1944 36.5556 22.3096V32.0717ZM26.0285 21.3625C26.0285 16.9671 25.4214 13.7738 24.2072 11.7825C23.0173 9.76696 21.1474 8.75918 18.5976 8.75918C16.1207 8.75918 14.2873 9.71839 13.0974 11.6368C11.9317 13.531 11.3125 16.5057 11.2396 20.5611V33.4559C11.2396 37.7784 11.8224 40.996 12.9881 43.1087C14.178 45.1971 16.0721 46.2413 18.6705 46.2413C21.2446 46.2413 23.1023 45.2335 24.2436 43.218C25.385 41.2024 25.9799 38.1184 26.0285 33.9658V21.3625ZM69.2659 54H58.7389V13.4217L46.172 17.3192V8.75918L68.1367 0.891212H69.2659V54ZM87.4788 48.8275C87.4788 47.152 88.0373 45.7921 89.1544 44.7479C90.2957 43.7036 91.7163 43.1815 93.4162 43.1815C95.1404 43.1815 96.561 43.7036 97.678 44.7479C98.8194 45.7921 99.39 47.152 99.39 48.8275C99.39 50.4788 98.8315 51.8266 97.7144 52.8708C96.5974 53.8907 95.1646 54.4007 93.4162 54.4007C91.692 54.4007 90.2714 53.8907 89.1544 52.8708C88.0373 51.8266 87.4788 50.4788 87.4788 48.8275ZM87.4788 18.9948C87.4788 17.3192 88.0373 15.9593 89.1544 14.9151C90.2957 13.8709 91.7163 13.3488 93.4162 13.3488C95.1404 13.3488 96.561 13.8709 97.678 14.9151C98.8194 15.9593 99.39 17.3192 99.39 18.9948C99.39 20.6461 98.8315 21.9939 97.7144 23.0381C96.5974 24.058 95.1646 24.568 93.4162 24.568C91.692 24.568 90.2714 24.058 89.1544 23.0381C88.0373 21.9939 87.4788 20.6461 87.4788 18.9948ZM118.295 22.8195H123.905C126.576 22.8195 128.555 22.1517 129.842 20.8161C131.129 19.4805 131.773 17.7078 131.773 15.498C131.773 13.361 131.129 11.6975 129.842 10.5076C128.579 9.31771 126.831 8.72275 124.597 8.72275C122.581 8.72275 120.893 9.28128 119.533 10.3983C118.174 11.4911 117.494 12.9239 117.494 14.6966H106.967C106.967 11.9282 107.707 9.45127 109.189 7.26572C110.694 5.05589 112.783 3.33174 115.454 2.09326C118.149 0.854786 121.112 0.235548 124.342 0.235548C129.951 0.235548 134.347 1.5833 137.528 4.27881C140.709 6.95003 142.3 10.6412 142.3 15.3522C142.3 17.7806 141.559 20.0147 140.078 22.0546C138.596 24.0944 136.654 25.6607 134.249 26.7535C137.236 27.822 139.458 29.4247 140.915 31.5617C142.397 33.6987 143.137 36.2242 143.137 39.1383C143.137 43.8493 141.413 47.6255 137.965 50.4667C134.541 53.3079 130 54.7285 124.342 54.7285C119.048 54.7285 114.713 53.3322 111.338 50.5396C107.987 47.7469 106.311 44.0558 106.311 39.4661H116.838C116.838 41.4574 117.579 43.0844 119.06 44.3472C120.566 45.6099 122.411 46.2413 124.597 46.2413C127.098 46.2413 129.053 45.5856 130.461 44.2743C131.894 42.9387 132.61 41.1781 132.61 38.9926C132.61 33.6987 129.696 31.0518 123.868 31.0518H118.295V22.8195ZM186.12 32.0717C186.12 39.4054 184.602 45.015 181.567 48.9004C178.531 52.7858 174.087 54.7285 168.235 54.7285C162.455 54.7285 158.036 52.8222 154.976 49.0097C151.916 45.1971 150.35 39.7332 150.277 32.6181V22.856C150.277 15.4494 151.807 9.82767 154.866 5.99082C157.951 2.15397 162.382 0.235548 168.162 0.235548C173.941 0.235548 178.361 2.14183 181.421 5.9544C184.481 9.74268 186.047 15.1944 186.12 22.3096V32.0717ZM175.593 21.3625C175.593 16.9671 174.986 13.7738 173.771 11.7825C172.582 9.76696 170.712 8.75918 168.162 8.75918C165.685 8.75918 163.852 9.71839 162.662 11.6368C161.496 13.531 160.877 16.5057 160.804 20.5611V33.4559C160.804 37.7784 161.387 40.996 162.552 43.1087C163.742 45.1971 165.636 46.2413 168.235 46.2413C170.809 46.2413 172.667 45.2335 173.808 43.218C174.949 41.2024 175.544 38.1184 175.593 33.9658V21.3625ZM210.533 54H207.404V43.09H195.505V54H192.393V30.3969H195.505V40.5449H207.404V30.3969H210.533V54ZM234.201 54H231.072V43.09H219.173V54H216.061V30.3969H219.173V40.5449H231.072V30.3969H234.201V54ZM239.161 52.4275C239.161 51.9088 239.313 51.4765 239.615 51.1307C239.929 50.7848 240.393 50.6119 241.009 50.6119C241.625 50.6119 242.09 50.7848 242.404 51.1307C242.728 51.4765 242.89 51.9088 242.89 52.4275C242.89 52.9247 242.728 53.3408 242.404 53.6758C242.09 54.0108 241.625 54.1783 241.009 54.1783C240.393 54.1783 239.929 54.0108 239.615 53.6758C239.313 53.3408 239.161 52.9247 239.161 52.4275ZM239.178 38.1133C239.178 37.5945 239.329 37.1622 239.631 36.8164C239.945 36.4706 240.41 36.2977 241.026 36.2977C241.642 36.2977 242.106 36.4706 242.42 36.8164C242.744 37.1622 242.906 37.5945 242.906 38.1133C242.906 38.6104 242.744 39.0265 242.42 39.3615C242.106 39.6965 241.642 39.8641 241.026 39.8641C240.41 39.8641 239.945 39.6965 239.631 39.3615C239.329 39.0265 239.178 38.6104 239.178 38.1133ZM251.79 30.3969L259.506 49.6555L267.222 30.3969H271.259V54H268.146V44.8084L268.438 34.8873L260.689 54H258.306L250.574 34.9359L250.882 44.8084V54H247.769V30.3969H251.79ZM280.775 30.3969L288.491 49.6555L296.208 30.3969H300.244V54H297.132V44.8084L297.423 34.8873L289.675 54H287.292L279.559 34.9359L279.867 44.8084V54H276.754V30.3969H280.775Z" fill="#F2F2F2"/>
</svg>
